<svg id="Your_design" data-name="Your design" xmlns="http://www.w3.org/2000/svg" viewBox="0 0 512 512"><defs><style>.cls-1{fill:#d8eaea;}.cls-2{fill:#5d7d84;}.cls-3{fill:#fff;}.cls-4{fill:#fff8e1;}.cls-5{fill:#1d2b2d;}.cls-6{fill:#ffb300;}.cls-7,.cls-8{fill:none;stroke-linecap:round;stroke-linejoin:round;stroke-width:4px;}.cls-7{stroke:#1d2b2d;}.cls-8{stroke:#fff;}</style></defs><circle class="cls-1" cx="256" cy="256" r="230.62"/><path class="cls-2" d="M88.78,414.83l101.54-36.65,4.35-27.24s.61,29.92,60.83,30.58,59.13-31.77,59.13-31.77l6.46,27.53,102.12,37.56S396,445,356.41,463.68a253.54,253.54,0,0,1-78.27,21.9l-10.89-74.22,8.8-6.73s-8-20-20.55-21.75c-15.34,1-19.95,23.3-19.95,23.3l7.47,5.18L228.5,485s-32.44-1.16-75.73-22.71S88.78,414.83,88.78,414.83Z"/><path class="cls-3" d="M228.5,485,243,411.36l-7.47-5.18s3.82-18.72,20.1-24.66c15,7.26,20.4,23.11,20.4,23.11l-8.8,6.73L278,485S249,489.45,228.5,485Z"/><path class="cls-4" d="M194.67,350.94s4.6,32.56,61,30.58,59.93-26.09,59-31.77-1.82-12.93-1.82-12.93,30.53-27.22,36.37-80.73c4.26-35.84,1-52.8,1-52.8s-16.49-1.76-24.88-10.73-6.82-22.14-12.58-28.38-21.8-24.1-48.76-16-44.32,7.07-60.76.27a31.75,31.75,0,0,0-13.32,26.81c.24,18.41-10.89,25.47-29.16,28.63,0,0-1.49,58.56,6.46,81.1s12.61,33.83,29.54,53.51Z"/><path class="cls-4" d="M351.41,209s17-4.78,14.81,23.54-7.06,23.25-17,23.54Z"/><path class="cls-4" d="M160.61,211.53s-16.08-3.6-15.14,21,3.31,24.84,15.18,26.05Z"/><rect class="cls-5" x="181.55" y="197.95" width="64.07" height="64.07" rx="27.99"/><rect class="cls-5" x="261.23" y="198.33" width="64.07" height="64.07" rx="27.99"/><path class="cls-6" d="M211.29,307.29s16.64-15.32,22-17.28c8.7-3.16,20.12,1.45,20.12,1.45s6.25-5.41,16.54-3.3S292.38,304,296.6,304.25s-9.75,3.3-19.64,2.24-23.53-8.7-23.53-8.7-14.58,8.84-22.76,10.16S211.29,307.29,211.29,307.29Z"/><path class="cls-6" d="M162.17,203.64s27.84-4.48,27.67-25.85,13.36-29.33,13.36-29.33,25.88,11.81,58,.53,54,15.43,56.68,25.83,5.21,24.23,32.27,28.47c0,0,18.11-20,13.59-44.79s-24.75-52.88-69.23-64-99-15.91-100,36.81c0,0-21.56-7.86-32.35,7.23C151.71,153.13,144.7,177.59,162.17,203.64Z"/><path class="cls-7" d="M195,129.5c-1.13.56-2.24,1.14-3.33,1.77"/><path class="cls-7" d="M160.72,203.29V230s-6,129.24,92.71,129.24,98-129.24,98-129.24V201.73"/><path class="cls-7" d="M255.5,381.52c-15.43,9.34-19.92,17.24-21.29,35.34-28.09-10.18-38.75-21.94-43.89-38.68l4.35-27.24S194.81,381,255.5,381.52Z"/><path class="cls-7" d="M255.65,381.52c15.44,9.34,21,17.24,22.42,35.34,28.95-10.93,38.45-22.2,43.09-39.66l-6.53-25.37S316.35,381,255.65,381.52Z"/><line class="cls-7" x1="190.32" y1="378.18" x2="88.78" y2="414.83"/><polyline class="cls-7" points="423.21 414.84 321.09 377.28 320.83 377.2"/><rect class="cls-7" x="181.55" y="197.95" width="64.07" height="64.07" rx="27" transform="translate(427.17 459.97) rotate(180)"/><rect class="cls-7" x="261.23" y="197.95" width="64.07" height="64.07" rx="27" transform="translate(586.53 459.97) rotate(180)"/><line class="cls-7" x1="245.62" y1="232.55" x2="261.23" y2="232.55"/><path class="cls-7" d="M203.2,148.46c43.12,17.47,65.3-13.56,93.64,2.46,38,21.48,5.54,43.13,53.34,52.37,30.45-37.36,12-93-61.35-110.28-68.69-16.16-84.82,4.5-92.41,22C189.64,130.59,203.2,148.46,203.2,148.46Z"/><path class="cls-7" d="M194.52,133.06s-21.1-16.84-38.76,14.78c-11.43,20.48,5,55.45,5,55.45s31.67.57,29.13-30.81c-1.23-15.19,13.35-24,13.35-24Z"/><circle class="cls-7" cx="256" cy="256" r="230.63"/><path class="cls-7" d="M236.06,406.54l7,4.82c6.9-8.59,14.87-9.35,24.23,0l8-6.71"/><line class="cls-7" x1="243.02" y1="411.36" x2="228.5" y2="485"/><line class="cls-7" x1="277.99" y1="485" x2="267.25" y2="411.36"/><path class="cls-7" d="M197.83,138.93s61.43-65.86,136.94-25.83"/><path class="cls-7" d="M261.23,148.84c1.51-.36,87.79-26.57,103,13.79"/><path class="cls-7" d="M309.46,160.32c13.65,14.31,39.92,28.73,50.65,26.26"/><path class="cls-7" d="M199.42,142.71s-31.47-4.77-47,32.56"/><path class="cls-7" d="M189.84,169.1c1.4,17.39-34,21.12-34,21.12"/><path class="cls-7" d="M162.17,258.6h-5a11.66,11.66,0,0,1-11.67-11.67V223.2a11.66,11.66,0,0,1,11.67-11.67h3.58"/><path class="cls-7" d="M351.41,209h3.14a11.68,11.68,0,0,1,11.67,11.67v23.74a11.68,11.68,0,0,1-11.67,11.67h-5.37"/><path class="cls-7" d="M250.85,262s-9.88,15.27,2.58,18.47"/><path class="cls-7" d="M253.43,291.46c-26.06-9.23-29.25,8.78-42.74,16.35,25.65,5.28,34.93-9.16,42.74-9.27,10.08-.14,18.78,13,45,6.37C283.52,298,277.49,280.49,253.43,291.46Z"/><line class="cls-7" x1="196.72" y1="338.51" x2="194.67" y2="350.94"/><line class="cls-7" x1="312.81" y1="336.82" x2="314.63" y2="351.83"/><line class="cls-8" x1="223.95" y1="215.12" x2="197.43" y2="236.75"/><line class="cls-8" x1="223.95" y1="230.36" x2="212.74" y2="239.77"/><line class="cls-8" x1="304.01" y1="215.12" x2="277.49" y2="236.75"/><line class="cls-8" x1="304.01" y1="230.36" x2="292.79" y2="239.77"/></svg>